<svg width="178" height="62" viewBox="0 0 178 62" fill="none" xmlns="http://www.w3.org/2000/svg">
<g clip-path="url(#clip0_408_21)">
<path d="M131.17 46L146 19.1967L160.83 46H131.17Z" stroke="black" stroke-width="6"/>
<path d="M120.74 49L120.74 13.0696L105.187 13.0696C101.97 13.0696 99.1985 13.6 96.8716 14.6608C94.5447 15.6873 92.7481 17.1759 91.482 19.1264C90.2159 21.0769 89.5828 23.4038 89.5828 26.1072C89.5828 28.7763 90.2159 31.0861 91.482 33.0366C92.7481 34.9529 94.5447 36.4243 96.8716 37.4509C99.1985 38.4775 101.97 38.9908 105.187 38.9908L116.12 38.9908L112.424 35.3464V49H120.74ZM97.8982 49L106.881 35.9624H98.0008L88.9156 49H97.8982ZM112.424 36.2704L116.12 32.3693L105.649 32.3693C103.082 32.3693 101.166 31.8218 99.9 30.7268C98.6339 29.5976 98.0008 28.0577 98.0008 26.1072C98.0008 24.1224 98.6339 22.5826 99.9 21.4875C101.166 20.3925 103.082 19.845 105.649 19.845H116.12L112.424 15.8927L112.424 36.2704Z" fill="black"/>
<path d="M82.7487 16L67.9186 42.8033L53.0885 16L82.7487 16Z" stroke="black" stroke-width="6"/>
<path d="M13.2603 49V13.0696H28.8131C32.0297 13.0696 34.8015 13.6 37.1284 14.6608C39.4553 15.6873 41.2519 17.1759 42.518 19.1264C43.7841 21.0769 44.4172 23.4038 44.4172 26.1072C44.4172 28.7763 43.7841 31.0861 42.518 33.0366C41.2519 34.9529 39.4553 36.4243 37.1284 37.4509C34.8015 38.4775 32.0297 38.9908 28.8131 38.9908H17.88L21.5757 35.3464V49H13.2603ZM36.1018 49L27.1192 35.9624H35.9992L45.0844 49H36.1018ZM21.5757 36.2704L17.88 32.3693H28.3511C30.9176 32.3693 32.8339 31.8218 34.1 30.7268C35.3661 29.5976 35.9992 28.0577 35.9992 26.1072C35.9992 24.1224 35.3661 22.5826 34.1 21.4875C32.8339 20.3925 30.9176 19.845 28.3511 19.845H17.88L21.5757 15.8927V36.2704Z" fill="black"/>
<line x1="175" y1="55.5" x2="145" y2="55.5" stroke="black" stroke-width="5"/>
<line x1="172.5" y1="58" x2="172.5" y2="28" stroke="black" stroke-width="5"/>
<rect x="161.998" y="45" width="2" height="7" transform="rotate(88.7397 161.998 45)" fill="#FF0000"/>
</g>
<defs>
<clipPath id="clip0_408_21">
<rect width="178" height="62" fill="white"/>
</clipPath>
</defs>
</svg>
